<?xml version="1.0" encoding="UTF-8" standalone="no"?>
<!-- Created with Inkscape (http://www.inkscape.org/) -->

<svg
   xmlns:dc="http://purl.org/dc/elements/1.1/"
   xmlns:cc="http://creativecommons.org/ns#"
   xmlns:rdf="http://www.w3.org/1999/02/22-rdf-syntax-ns#"
   xmlns:svg="http://www.w3.org/2000/svg"
   xmlns="http://www.w3.org/2000/svg"
   xmlns:sodipodi="http://sodipodi.sourceforge.net/DTD/sodipodi-0.dtd"
   xmlns:inkscape="http://www.inkscape.org/namespaces/inkscape"
   width="137.51271mm"
   height="137.51271mm"
   viewBox="0 0 137.51271 137.51271"
   version="1.1"
   id="svg8"
   sodipodi:docname="EF-logo-with-circle.svg"
   inkscape:version="0.92.4 5da689c313, 2019-01-14"
   style="enable-background:new">
  <defs
     id="defs2" />
  <sodipodi:namedview
     id="base"
     pagecolor="#ffffff"
     bordercolor="#666666"
     borderopacity="1.0"
     inkscape:pageopacity="0.0"
     inkscape:pageshadow="2"
     inkscape:zoom="0.7071068"
     inkscape:cx="167.04584"
     inkscape:cy="269.11982"
     inkscape:document-units="mm"
     inkscape:current-layer="layer2"
     showgrid="false"
     inkscape:window-width="1366"
     inkscape:window-height="703"
     inkscape:window-x="0"
     inkscape:window-y="0"
     inkscape:window-maximized="1" />
  <metadata
     id="metadata5">
    <rdf:RDF>
      <cc:Work
         rdf:about="">
        <dc:format>image/svg+xml</dc:format>
        <dc:type
           rdf:resource="http://purl.org/dc/dcmitype/StillImage" />
        <dc:title></dc:title>
      </cc:Work>
    </rdf:RDF>
  </metadata>
  <g
     inkscape:groupmode="layer"
     id="layer2"
     inkscape:label="fondo"
     transform="translate(13.941328,0.68911403)">
    <circle
       style="fill:#181d27;fill-opacity:1;stroke:#dadff7;stroke-width:2.43469572;stroke-miterlimit:4;stroke-dasharray:none;stroke-opacity:1"
       id="path1031"
       cx="54.815029"
       cy="68.067238"
       r="67.539009" />
  </g>
  <g
     inkscape:label="Layer 1"
     inkscape:groupmode="layer"
     id="layer1"
     transform="translate(-48.70761,-84.642813)"
     sodipodi:insensitive="true">
    <g
       id="g1062"
       transform="translate(-2.5591032,-0.12683777)">
      <path
         sodipodi:nodetypes="cc"
         inkscape:connector-curvature="0"
         id="path4526-7"
         d="m 111.03236,124.15057 -21.082947,7.47725"
         style="fill:#dadff7;fill-opacity:1;stroke:#dadff7;stroke-width:0.10603005px;stroke-linecap:butt;stroke-linejoin:miter;stroke-opacity:1" />
      <path
         sodipodi:nodetypes="cc"
         inkscape:connector-curvature="0"
         id="path4526-7-3"
         d="m 111.13776,134.71371 -21.733188,7.70788"
         style="fill:#dadff7;fill-opacity:1;stroke:#dadff7;stroke-width:0.10930032px;stroke-linecap:butt;stroke-linejoin:miter;stroke-opacity:1" />
      <path
         inkscape:connector-curvature="0"
         id="path4605"
         d="m 111.08655,134.75905 0.005,-10.65516"
         style="fill:#dadff7;fill-opacity:1;stroke:#dadff7;stroke-width:0.15026224px;stroke-linecap:butt;stroke-linejoin:miter;stroke-opacity:1" />
      <path
         sodipodi:nodetypes="cc"
         inkscape:connector-curvature="0"
         id="path4526-7-5-5"
         d="m 119.12771,142.48411 -29.7765,10.56052"
         style="fill:#dadff7;fill-opacity:1;stroke:#dadff7;stroke-width:0.14975172px;stroke-linecap:butt;stroke-linejoin:miter;stroke-opacity:1" />
      <path
         inkscape:connector-curvature="0"
         id="path4641"
         d="M 90.051627,131.59114 V 120.59401"
         style="fill:#dadff7;fill-opacity:1;stroke:#dadff7;stroke-width:0.22360146px;stroke-linecap:butt;stroke-linejoin:miter;stroke-opacity:1" />
      <path
         inkscape:connector-curvature="0"
         id="path4647"
         d="M 89.439966,153.03922 V 142.36311"
         style="fill:#dadff7;fill-opacity:1;stroke:#dadff7;stroke-width:0.22415589px;stroke-linecap:butt;stroke-linejoin:miter;stroke-opacity:1" />
      <path
         sodipodi:nodetypes="cc"
         inkscape:connector-curvature="0"
         id="path4526-6-9-0"
         d="m 149.88122,168.80174 -18.585,6.59137"
         style="fill:#dadff7;fill-opacity:1;stroke:#dadff7;stroke-width:0.09346735px;stroke-linecap:butt;stroke-linejoin:miter;stroke-opacity:1" />
      <path
         sodipodi:nodetypes="cc"
         inkscape:connector-curvature="0"
         id="path4526-6-9-0-9"
         d="m 149.86222,180.01651 -18.53734,6.57443"
         style="fill:#dadff7;fill-opacity:1;stroke:#dadff7;stroke-width:0.09322755px;stroke-linecap:butt;stroke-linejoin:miter;stroke-opacity:1" />
      <path
         inkscape:connector-curvature="0"
         id="path4605-3"
         d="m 149.849,180.04596 0.005,-11.1944"
         style="fill:#dadff7;fill-opacity:1;stroke:#dadff7;stroke-width:0.15786694px;stroke-linecap:butt;stroke-linejoin:miter;stroke-opacity:1" />
      <path
         inkscape:connector-curvature="0"
         id="path4637-7-0"
         d="m 131.31437,206.57187 -0.0205,-46.40437"
         style="fill:#dadff7;fill-opacity:1;stroke:#dadff7;stroke-width:0.09476779px;stroke-linecap:butt;stroke-linejoin:miter;stroke-opacity:1" />
      <path
         sodipodi:nodetypes="cc"
         inkscape:connector-curvature="0"
         id="path4526-6-9-0-9-6"
         d="m 131.35756,206.55011 -13.07518,4.63722"
         style="fill:#dadff7;fill-opacity:1;stroke:#dadff7;stroke-width:0.06575717px;stroke-linecap:butt;stroke-linejoin:miter;stroke-opacity:1" />
      <path
         inkscape:connector-curvature="0"
         id="path4820"
         d="m 75.05978,141.42731 0.05995,-31.11417 21.633937,-7.67339 c 11.898663,-4.220371 21.724903,-7.673399 21.836063,-7.673399 0.11117,0 0.17417,3.444208 0.14001,7.653779 l -0.0622,7.65378 -14.31875,5.08341 -14.318727,5.08339 -0.06303,5.64172 c -0.03467,3.10294 -0.01692,5.64172 0.03942,5.64172 0.05635,0 4.55784,-1.57823 10.003307,-3.50719 5.44548,-1.92895 10.1405,-3.59021 10.43338,-3.69167 l 0.5325,-0.18448 v 5.13657 5.13658 l -10.88696,3.85651 -10.886969,3.85652 v 5.46719 5.46719 l 0.532514,-0.1816 c 0.292883,-0.0999 6.762937,-2.38963 14.377895,-5.08833 7.61497,-2.69871 14.08644,-4.98935 14.38105,-5.09031 l 0.53565,-0.18357 -0.0624,7.09327 -0.0623,7.09328 -3.78678,1.35866 c -2.69664,0.96755 -35.736933,12.72771 -39.821051,14.17368 -0.237076,0.0838 -0.28459,-6.14172 -0.236674,-31.00914 z"
         style="fill:#dadff7;fill-opacity:1;stroke:#dadff7;stroke-width:0.22395357;stroke-miterlimit:4;stroke-dasharray:none;stroke-opacity:1" />
      <path
         sodipodi:nodetypes="ccsscscccccsccc"
         inkscape:connector-curvature="0"
         id="path4822"
         d="m 118.00883,180.51572 0.0638,-31.51909 12.84147,-4.38517 c 7.0628,-2.41185 17.43035,-5.97618 23.03902,-7.92074 5.60867,-1.94455 10.39728,-3.60104 10.64134,-3.68106 0.4196,-0.13755 0.44018,0.28702 0.37771,7.79514 l -0.0662,7.94061 -16.80604,5.71105 -16.80606,5.71104 -0.0642,23.69915 0.29726,23.70954 -6.02665,1.90406 c -3.14273,0.99292 -6.09065,2.05848 -6.61042,2.23451 l -0.94507,0.32006 z"
         style="fill:#dadff7;fill-opacity:1;stroke:#dadff7;stroke-width:0.2333615;stroke-miterlimit:4;stroke-dasharray:none;stroke-opacity:1" />
      <path
         inkscape:connector-curvature="0"
         id="path4824"
         d="m 130.97744,180.59553 0.0804,-6.18494 11.29507,-3.58813 c 6.21227,-1.97347 11.32893,-3.58905 11.37033,-3.59019 0.0414,-8.1e-4 0.0746,2.79472 0.0738,6.213 l -8.1e-4,6.21506 -11.23774,3.56007 c -6.18076,1.95804 -11.33295,3.56009 -11.44929,3.56009 -0.11634,0 -0.17536,-2.78324 -0.13115,-6.18496 z"
         style="fill:#dadff7;fill-opacity:1;stroke:#dadff7;stroke-width:0.27005073;stroke-miterlimit:4;stroke-dasharray:none;stroke-opacity:1" />
    </g>
  </g>
</svg>
